PathFileType	4	(X/Y/Z)	C:/Users/opensim2020/Desktop/walking_exp_matlab/subject02_walking08_straight_02.trc																																																																																																																									
DataRate	CameraRate	NumFrames	NumMarkers	Units	OrigDataRate	OrigDataStartFrame	OrigNumFrames																																																																																																																					
100	100	6	41	mm	100	1598	259																																																																																																																					
Frame#	Time	LFHD			RFHD			LBHD			RBHD			C7			T10			CLAV			STRN			RBAK			LSHO			LUPA			LELB			LFRM			LWRA			LWRB			LFIN			RSHO			RUPA			RELB			RFRM			RWRA			RWRB			RFIN			LASI			RASI			LPSI			RPSI			LTHI			LKNE			LTIB			LANK			LHEE			LTOE			RTHI			RKNE			RTIB			RANK			RHEE			RTOE			*39			*40		
		X1	Y1	Z1	X2	Y2	Z2	X3	Y3	Z3	X4	Y4	Z4	X5	Y5	Z5	X6	Y6	Z6	X7	Y7	Z7	X8	Y8	Z8	X9	Y9	Z9	X10	Y10	Z10	X11	Y11	Z11	X12	Y12	Z12	X13	Y13	Z13	X14	Y14	Z14	X15	Y15	Z15	X16	Y16	Z16	X17	Y17	Z17	X18	Y18	Z18	X19	Y19	Z19	X20	Y20	Z20	X21	Y21	Z21	X22	Y22	Z22	X23	Y23	Z23	X24	Y24	Z24	X25	Y25	Z25	X26	Y26	Z26	X27	Y27	Z27	X28	Y28	Z28	X29	Y29	Z29	X30	Y30	Z30	X31	Y31	Z31	X32	Y32	Z32	X33	Y33	Z33	X34	Y34	Z34	X35	Y35	Z35	X36	Y36	Z36	X37	Y37	Z37	X38	Y38	Z38	X39	Y39	Z39	X40	Y40	Z40	X41	Y41	Z41
																																																																																																																												
130	1.29	77.06006	1730.77197	-1475.1051	69.58582	1714.50378	-1332.04907	-51.72864	1653.81396	-1488.30652	-71.41669	1636.83118	-1346.92737	-112.13245	1521.60693	-1410.09924	-177.07704	1246.83899	-1398.35901	21.72417	1444.45447	-1421.68506	66.09973	1271.60303	-1403.58643	-175.18353	1353.69446	-1337.40588	-46.21691	1482.48486	-1591.75867	-75.68524	1279.64014	-1663.60974	-90.52126	1137.86292	-1666.17371	-84.05685	1004.3158	-1664.79236	-35.71101	881.12384	-1612.46448	-76.11026	881.37177	-1653.3175	-58.88322	816.00378	-1644.42664	-27.01634	1491.46362	-1226.02185	-24.78447	1303.81091	-1129.75208	23.1455	1164.66931	-1103.00635	88.44714	1063.02112	-1087.3219	172.50629	960.32037	-1109.09338	131.85942	940.40094	-1074.68921	189.97832	897.15515	-1073.43359	66.06513	985.60938	-1523.00427	51.66835	968.83423	-1264.69922	-149.16586	1024.08459	-1453.28162	-160.19673	1024.93604	-1339.5575	62.30724	682.08862	-1596.86353	100.8294	485.87	-1567.60559	114.78867	293.24469	-1577.52637	201.60175	84.08976	-1557.88147	177.97026	45.50899	-1506.57715	358.4826	89.90811	-1559.50659	-59.00529	664.61914	-1219.69849	-89.7049	456.75662	-1265.78601	-166.92633	283.78543	-1263.91028	-221.13376	98.0575	-1307.95825	-262.36795	46.40532	-1365.11609	-75.77873	36.00596	-1290.01624	-30.32085	1796.63489	-1391.51184	-2845.37207	1033.84021	3360.40454
131	1.3	85.19215	1729.21057	-1477.05334	77.84946	1713.4231	-1333.98792	-43.73978	1652.75037	-1490.04077	-63.25779	1636.09619	-1348.57483	-103.88825	1520.44861	-1411.55408	-168.88976	1245.68738	-1399.62634	29.85408	1443.38782	-1422.96631	74.36507	1270.57715	-1404.54041	-166.63704	1352.34204	-1338.49719	-37.94048	1480.91492	-1592.76416	-67.23859	1278.29785	-1665.06079	-80.86843	1136.15076	-1667.43982	-73.4327	1002.63049	-1666.14087	-23.55006	880.30695	-1614.7002	-64.72412	879.92291	-1655.01392	-46.82759	814.97229	-1646.7135	-19.18683	1490.73096	-1227.578	-15.41128	1302.86975	-1130.67346	32.26477	1163.76379	-1104.55969	98.49998	1062.49182	-1089.34131	182.70856	960.24023	-1112.17651	142.4014	939.99316	-1077.55566	200.55341	897.00592	-1076.80823	74.79533	984.37866	-1523.43677	59.79865	967.45062	-1265.1709	-140.7495	1022.98846	-1454.48413	-151.91714	1023.88019	-1340.73206	70.4331	680.8208	-1597.85205	109.559	484.7912	-1568.60034	126.76636	292.63837	-1579.07288	217.55962	85.05253	-1559.88794	194.28812	45.96381	-1508.83301	374.48022	92.96434	-1560.77344	-52.9593	663.82172	-1220.09033	-84.9581	456.19647	-1266.09058	-164.26674	284.18991	-1264.18445	-220.45688	98.89544	-1308.05359	-262.06552	47.52393	-1365.34167	-75.77616	36.07265	-1289.99316	-21.83828	1795.64832	-1393.45764	-2845.76953	1034.05627	3357.19263
132	1.31	93.42435	1728.0061	-1479.17542	86.2821	1712.37964	-1336.06335	-35.69956	1651.69263	-1491.81848	-55.09484	1635.3656	-1350.28821	-95.97393	1519.33936	-1412.99792	-160.32678	1244.44556	-1400.89148	38.00203	1442.1936	-1424.31067	82.72903	1269.56482	-1405.64624	-158.04404	1351.2533	-1339.4209	-30.30727	1479.84033	-1594.55518	-58.47778	1276.78931	-1666.41101	-71.43082	1134.73401	-1669.16162	-62.92832	1001.15753	-1667.96082	-12.09598	879.15625	-1616.56641	-53.2097	878.55908	-1657.00574	-34.67662	813.83405	-1649.05432	-10.65804	1489.78809	-1228.76404	-6.75816	1302.17627	-1132.49585	41.44862	1162.88049	-1106.20898	107.84105	1061.64453	-1091.89624	192.5928	959.97754	-1115.37427	152.63603	939.49835	-1080.48938	211.38919	896.65784	-1079.9873	83.52008	983.08728	-1524.06433	67.96983	966.12201	-1265.81812	-132.19739	1021.94305	-1455.77588	-143.54128	1022.84503	-1342.0293	78.86997	679.61914	-1598.77551	118.60885	483.92474	-1569.81873	138.12224	292.03717	-1580.53772	231.92734	85.6357	-1561.59326	208.97861	46.16055	-1510.6814	388.73273	95.36266	-1562.61914	-46.55463	663.17639	-1220.73438	-80.3872	455.75385	-1266.40662	-161.92601	284.59781	-1264.38867	-219.78438	99.88881	-1308.1405	-261.77573	48.86063	-1365.45081	-75.6012	35.85988	-1289.85669	-13.33549	1794.74951	-1395.57422	-2845.2478	1033.97693	3360.33472
133	1.32	101.74467	1726.76697	-1481.34338	94.66167	1711.30505	-1338.19873	-27.59415	1650.64075	-1493.70459	-46.88342	1634.57007	-1352.1073	-87.53189	1518.13586	-1414.521	-151.85136	1243.21533	-1402.32629	46.26407	1441.14893	-1425.83337	91.13534	1268.58081	-1406.92249	-149.56516	1349.98645	-1340.80933	-22.24794	1478.4707	-1596.10828	-49.65462	1275.41248	-1667.95435	-61.81438	1133.24646	-1670.93079	-52.50594	999.86658	-1670.20435	-0.9681	877.78241	-1618.44702	-41.69238	877.22437	-1659.26318	-22.64281	812.69977	-1651.56396	-2.41898	1488.9115	-1230.39771	1.71838	1300.99915	-1133.85437	50.4103	1161.9491	-1107.98157	117.68231	1060.98218	-1094.11255	202.29524	959.58325	-1118.6217	162.759	939.06183	-1083.55225	221.50163	896.36151	-1083.80603	92.26331	981.80139	-1524.89221	76.37185	964.90802	-1266.66553	-123.6333	1020.92206	-1457.21094	-135.1003	1021.85034	-1343.43164	87.75969	678.57111	-1599.68127	128.10527	483.17673	-1571.20728	148.86409	291.38135	-1582.00195	244.33504	85.74208	-1563.04285	222.03174	46.17267	-1511.93347	401.15204	96.7318	-1564.86304	-40.09505	662.51477	-1221.65918	-75.82394	455.37286	-1266.75244	-159.26534	285.09979	-1264.63428	-219.06647	100.97755	-1308.21948	-261.34229	50.29288	-1365.86121	-75.50552	35.80538	-1289.74866	-4.85362	1793.84143	-1397.71631	-2845.11108	1034.18103	3360.21021
134	1.33	109.97421	1725.44751	-1483.54749	103.18767	1710.13879	-1340.20691	-19.70568	1649.64319	-1495.81494	-38.60821	1633.7948	-1354.03589	-79.3018	1516.99072	-1416.16321	-143.22093	1241.97839	-1403.8833	54.55497	1440.125	-1427.50195	99.65615	1267.61426	-1408.35547	-141.26939	1348.89404	-1342.53625	-14.14766	1477.14453	-1597.77344	-40.69113	1273.93335	-1669.45752	-52.18655	1131.82068	-1672.85242	-41.96038	998.50024	-1672.26599	10.24535	876.56018	-1620.71863	-30.26894	875.94727	-1661.75916	-10.71422	811.68555	-1654.45276	6.08392	1488.08496	-1232.09106	9.33181	1299.62793	-1135.90991	59.41235	1160.93433	-1109.92688	126.71175	1060.04297	-1096.7793	211.71617	958.87384	-1121.9646	172.45633	938.18726	-1086.59717	231.34988	895.73572	-1087.38721	101.14702	980.54688	-1525.93188	84.81255	963.76251	-1267.67322	-114.89225	1019.9472	-1458.74463	-126.55433	1020.81311	-1345.0354	97.20453	677.74707	-1600.71582	137.97664	482.56534	-1572.62146	158.97563	290.70609	-1583.33899	254.97076	85.38876	-1564.36279	233.17459	45.70526	-1513.04333	411.86288	96.79523	-1567.11816	-33.70952	662.30432	-1222.47437	-71.1795	455.06305	-1267.10645	-156.71733	285.72037	-1265.18896	-218.3828	102.12891	-1308.25952	-261.05667	51.70271	-1365.64868	-75.46081	35.86668	-1289.64087	3.63796	1792.95813	-1399.96765	-2845.13135	1034.17993	3360.22485
135	1.34	118.26167	1724.07617	-1485.83765	111.60281	1709.22717	-1342.6394	-11.36577	1648.58411	-1497.65125	-30.24003	1632.97168	-1355.97058	-71.14864	1515.85095	-1417.89282	-134.40627	1240.68481	-1405.40503	62.96882	1439.12183	-1429.32227	108.24426	1266.64343	-1409.96521	-132.51505	1347.55884	-1343.92737	-6.01271	1475.81189	-1599.53845	-31.51092	1272.41748	-1670.94385	-42.54909	1130.42847	-1674.85803	-31.34481	997.23315	-1674.71191	21.57277	875.45313	-1623.45203	-18.97191	874.703	-1664.47913	1.08553	810.64258	-1657.51892	14.73037	1487.09827	-1233.76465	18.77469	1298.98267	-1137.71436	68.25638	1159.71057	-1112.21228	135.73592	1059.07788	-1099.47913	221.07802	957.87744	-1125.25916	181.90149	937.32947	-1089.76233	240.84583	894.8584	-1091.07593	110.12949	979.31982	-1527.26355	93.47345	962.68207	-1268.84668	-106.10286	1018.94659	-1460.31445	-117.84631	1019.77765	-1346.67834	107.19409	677.12439	-1601.88953	148.10699	482.01099	-1574.06665	168.55162	289.94781	-1584.54663	264.26395	84.66994	-1565.6405	242.56441	45.31316	-1513.88208	420.98734	95.71597	-1569.32813	-27.18408	661.63562	-1223.55994	-66.49683	454.84268	-1267.56702	-154.06522	286.42581	-1265.47253	-217.62825	103.33444	-1308.07642	-260.88104	53.55169	-1365.59265	-75.35793	35.82943	-1289.48865	12.17613	1791.99756	-1402.19043	-2845.99292	1034.12683	3357.31714
